<svg width="1130" height="1130" viewBox="0 0 1130 1130" fill="none" xmlns="http://www.w3.org/2000/svg">
<circle cx="565" cy="565" r="565" fill="#D9D9D9" fill-opacity="0.75"/>
<ellipse cx="557.466" cy="581.326" rx="356.073" ry="364.285" fill="#303030"/>
<path d="M884.633 223.542L862.717 238.103L869.48 263.926L849.172 247.102L827.257 261.662L836.621 236.704L816.313 219.879L842.409 221.279L851.774 196.32L858.537 222.143L884.633 223.542Z" fill="#FF4F24"/>
<path d="M160.791 580.57L138.876 595.13L145.639 620.953L125.331 604.129L103.415 618.69L112.78 593.731L92.4722 576.907L118.568 578.306L127.932 553.348L134.696 579.171L160.791 580.57Z" fill="#FF4F24"/>
<path d="M310.225 943.565L288.31 958.125L295.073 983.949L274.765 967.124L252.849 981.685L262.214 956.726L241.906 939.902L268.002 941.301L277.366 916.343L284.13 942.166L310.225 943.565Z" fill="#FF4F24"/>
<path d="M1038.24 580.57L1016.32 595.13L1023.09 620.953L1002.78 604.129L980.864 618.69L990.229 593.731L969.921 576.907L996.017 578.306L1005.38 553.348L1012.14 579.171L1038.24 580.57Z" fill="#FF4F24"/>
<rect width="203.076" height="203.076" transform="matrix(-0.699001 0.71512 -0.699001 -0.71512 584.643 581.346)" fill="white"/>
<rect width="203.076" height="203.076" transform="matrix(-0.699001 0.71512 -0.699001 -0.71512 748.657 413.526)" fill="#FF4F24"/>
<rect width="203.076" height="203.076" transform="matrix(-0.699001 0.71512 -0.699001 -0.71512 748.657 749.156)" fill="white"/>
<path d="M977.765 645.881C973.741 651.917 955.634 717.303 955.634 726.021C955.634 727.697 958.317 728.703 961.67 728.703C966.029 728.703 969.047 721.662 975.753 694.166L984.136 659.964L997.548 660.3C1004.93 660.635 1017.33 662.312 1025.38 664.659C1042.14 669.353 1042.82 672.706 1032.42 712.608C1027.06 734.403 1026.39 740.439 1030.07 742.451C1035.77 746.139 1037.45 742.116 1045.83 709.59C1053.88 677.736 1054.89 660.635 1048.18 655.27C1042.48 650.576 1000.57 638.169 990.171 638.169C985.812 638.169 980.447 641.522 977.765 645.881Z" fill="black"/>
<path d="M83.8249 653.599C83.8249 664.664 88.1839 667.011 122.386 673.047C140.828 676.4 157.929 679.418 160.276 680.424C162.958 681.094 152.228 692.495 134.122 707.249C108.638 728.373 103.608 734.074 105.285 740.109C106.291 743.798 107.297 748.492 107.297 749.833C107.297 752.516 176.371 693.501 179.053 688.807C179.724 687.801 178.718 682.1 177.377 676.4C174.359 666.005 173.688 665.67 136.804 658.293C116.015 653.934 95.5608 649.91 91.5371 648.904C85.5014 647.899 83.8249 648.904 83.8249 653.599Z" fill="black"/>
<path d="M929.481 776.982C910.033 807.495 903.662 822.249 907.015 827.949C909.027 830.631 919.086 838.679 929.816 845.385C953.623 860.139 955.3 859.133 974.748 827.278C994.196 795.088 993.525 791.735 968.377 775.64C956.641 768.264 945.241 762.228 942.893 762.228C940.546 762.228 934.511 768.934 929.481 776.982ZM969.048 795.759L976.76 801.459L966.03 820.572C959.994 830.967 954.294 839.35 953.623 839.35C950.27 839.35 922.104 821.913 920.427 818.896C918.416 815.878 934.511 785.7 940.211 781.676C943.564 779.329 954.294 784.694 969.048 795.759Z" fill="black"/>
<path d="M186.767 804.49C170.672 814.885 156.924 822.932 156.254 822.262C155.918 821.591 151.224 813.544 146.194 804.826C138.482 791.413 136.135 789.401 132.111 792.754C128.088 796.107 128.088 798.119 133.453 807.173C136.806 812.873 147.536 831.315 157.595 848.416C169.331 868.535 177.043 878.259 180.061 877.253C186.432 874.906 185.761 871.217 175.702 854.116C170.672 845.734 167.319 838.692 167.99 838.021C168.66 837.351 182.073 828.968 197.832 819.244C213.592 809.185 226.669 800.802 227.34 800.466C229.352 799.125 221.304 785.713 218.622 785.713C217.28 785.713 202.862 794.431 186.767 804.49Z" fill="black"/>
<path d="M843.305 887.645C837.269 892.004 838.275 893.681 858.394 916.147C869.794 929.224 880.524 939.954 881.866 939.954C883.207 939.954 886.225 937.607 888.572 934.924C891.925 930.901 889.578 926.542 875.495 910.447C852.023 882.951 850.682 882.28 843.305 887.645Z" fill="black"/>
<path d="M398.683 944.305C383.929 953.359 340.003 990.578 337.656 995.608C336.65 997.62 339.333 1000.97 343.357 1002.98C350.063 1006 353.416 1003.99 371.523 986.219C382.923 974.818 392.312 967.106 392.647 968.783C392.647 970.459 392.647 983.872 392.312 998.961C391.977 1025.12 392.312 1026.12 400.695 1029.81L409.413 1033.83L408.742 992.925L407.736 951.682L418.802 950.676C425.843 950.005 432.214 951.682 436.238 955.37C442.273 960.735 452.668 959.729 452.668 953.694C452.668 948.329 430.538 936.593 420.478 936.593C415.113 936.593 405.389 939.946 398.683 944.305Z" fill="black"/>
<path d="M772.22 942.293C766.185 944.64 766.855 951.682 774.567 967.106C789.656 996.278 789.656 995.608 768.867 1005C758.808 1010.03 749.084 1013.71 748.078 1013.71C746.736 1013.71 741.036 1002.98 735.336 990.243C724.606 966.436 722.929 964.759 714.882 969.789C711.193 972.136 711.864 975.824 717.9 990.578C728.63 1016.4 737.012 1027.13 745.73 1027.13C749.754 1027.13 761.49 1022.1 771.885 1015.73C782.279 1009.69 794.351 1003.66 799.045 1002.31L807.428 1000.3L793.68 970.124C786.303 953.694 779.262 939.946 778.256 940.281C777.25 940.281 774.232 941.287 772.22 942.293Z" fill="black"/>
<path d="M894.273 945.649C890.585 949.002 891.591 959.397 895.614 962.079C900.979 965.097 910.033 955.038 907.686 948.667C905.339 943.302 898.297 941.625 894.273 945.649Z" fill="black"/>
<path d="M632.059 991.925C620.994 994.608 607.581 996.619 602.216 996.619C593.498 996.955 592.827 997.625 594.839 1007.68C595.845 1013.72 597.522 1026.8 598.863 1036.19C601.881 1061 604.563 1062.34 639.771 1057.65C655.866 1055.3 670.284 1052.28 671.961 1050.6C678.667 1043.9 669.614 1042.22 645.471 1045.24C624.347 1047.92 619.317 1047.59 616.635 1043.56C611.27 1035.18 615.629 1032.5 639.436 1028.81C652.513 1026.8 665.59 1023.11 668.608 1020.76C676.655 1014.06 675.314 998.296 666.596 992.26C657.878 986.225 658.213 986.225 632.059 991.925ZM657.207 1008.36C657.207 1016.74 656.872 1017.07 626.359 1022.1C615.964 1023.78 613.952 1023.11 611.94 1016.74C608.252 1005.67 615.293 1002.32 646.477 1000.64C655.866 1000.31 657.207 1001.31 657.207 1008.36Z" fill="black"/>
<path d="M521.408 1009.36C517.719 1040.21 515.372 1045.57 505.313 1046.58C500.283 1047.25 491.565 1045.57 485.865 1042.55C476.811 1038.19 475.47 1038.19 473.794 1042.55C470.441 1051.27 478.488 1054.96 503.636 1057.98C517.049 1059.32 528.114 1059.99 528.785 1059.65C530.461 1057.64 538.844 998.292 537.503 995.945C536.832 994.604 533.144 993.598 529.791 993.598C524.761 993.598 523.084 996.951 521.408 1009.36Z" fill="black"/>
<path d="M162.023 478.71C166.046 472.675 184.153 407.289 184.153 398.571C184.153 396.894 181.471 395.888 178.118 395.888C173.759 395.888 170.741 402.93 164.034 430.426L155.652 464.627L142.239 464.292C134.862 463.957 122.456 462.28 114.408 459.933C97.6428 455.239 96.9722 451.885 107.367 411.983C112.732 390.188 113.402 384.153 109.714 382.141C104.014 378.452 102.337 382.476 93.9544 415.001C85.9069 446.856 84.901 463.957 91.6072 469.322C97.3075 474.016 139.221 486.423 149.616 486.423C153.975 486.423 159.34 483.069 162.023 478.71Z" fill="black"/>
<path d="M1055.96 470.993C1055.96 459.927 1051.6 457.58 1017.4 451.545C998.961 448.192 981.86 445.174 979.512 444.168C976.83 443.497 987.56 432.097 1005.67 417.343C1031.15 396.218 1036.18 390.518 1034.5 384.482C1033.5 380.794 1032.49 376.1 1032.49 374.758C1032.49 372.076 963.417 431.091 960.735 435.785C960.064 436.791 961.07 442.491 962.412 448.192C965.429 458.586 966.1 458.922 1002.98 466.298C1023.77 470.657 1044.23 474.681 1048.25 475.687C1054.29 476.693 1055.96 475.687 1055.96 470.993Z" fill="black"/>
<path d="M210.308 347.61C229.756 317.097 236.127 302.343 232.773 296.643C230.762 293.96 220.702 285.913 209.972 279.206C186.165 264.453 184.489 265.459 165.041 297.313C145.592 329.503 146.263 332.856 171.411 348.951C183.147 356.328 194.548 362.364 196.895 362.364C199.242 362.364 205.278 355.657 210.308 347.61ZM170.741 328.833L163.029 323.132L173.759 304.019C179.794 293.625 185.495 285.242 186.165 285.242C189.518 285.242 217.684 302.678 219.361 305.696C221.373 308.714 205.278 338.892 199.578 342.916C196.225 345.263 185.495 339.898 170.741 328.833Z" fill="black"/>
<path d="M953.021 320.101C969.116 309.707 982.864 301.659 983.535 302.33C983.87 303 988.564 311.048 993.594 319.766C1001.31 333.178 1003.65 335.19 1007.68 331.837C1011.7 328.484 1011.7 326.472 1006.34 317.419C1002.98 311.718 992.253 293.276 982.193 276.175C970.458 256.057 962.745 246.333 959.728 247.339C953.357 249.686 954.027 253.374 964.087 270.475C969.116 278.858 972.469 285.9 971.799 286.57C971.128 287.241 957.716 295.624 941.956 305.348C926.196 315.407 913.119 323.79 912.449 324.125C910.437 325.466 918.484 338.879 921.167 338.879C922.508 338.879 936.926 330.161 953.021 320.101Z" fill="black"/>
<path d="M296.484 236.946C302.519 232.587 301.513 230.911 281.395 208.445C269.994 195.368 259.264 184.638 257.923 184.638C256.582 184.638 253.564 186.985 251.217 189.667C247.864 193.691 250.211 198.05 264.294 214.145C287.766 241.641 289.107 242.311 296.484 236.946Z" fill="black"/>
<path d="M741.105 180.286C755.859 171.233 799.785 134.013 802.132 128.984C803.138 126.972 800.456 123.619 796.432 121.607C789.726 118.589 786.373 120.601 768.266 138.372C756.865 149.773 747.476 157.485 747.141 155.809C747.141 154.132 747.141 140.72 747.476 125.631C747.812 99.4763 747.476 98.4704 739.094 94.782L730.375 90.7582L731.046 131.666L732.052 172.91L720.987 173.916C713.945 174.586 707.574 172.91 703.551 169.221C697.515 163.856 687.12 164.862 687.12 170.898C687.12 176.263 709.251 187.999 719.31 187.999C724.675 187.999 734.399 184.645 741.105 180.286Z" fill="black"/>
<path d="M367.567 182.298C373.603 179.951 372.932 172.91 365.22 157.485C350.131 128.313 350.131 128.984 370.92 119.595C380.98 114.565 390.704 110.877 391.71 110.877C393.051 110.877 398.751 121.607 404.452 134.349C415.181 158.156 416.858 159.833 424.906 154.803C428.594 152.456 427.923 148.767 421.888 134.014C411.158 108.195 402.775 97.4646 394.057 97.4646C390.033 97.4646 378.297 102.494 367.903 108.865C357.508 114.901 345.437 120.936 340.742 122.278L332.36 124.29L346.107 154.468C353.484 170.898 360.526 184.646 361.532 184.31C362.538 184.31 365.555 183.304 367.567 182.298Z" fill="black"/>
<path d="M245.516 178.943C249.205 175.59 248.199 165.195 244.175 162.512C238.81 159.495 229.757 169.554 232.104 175.925C234.451 181.29 241.493 182.967 245.516 178.943Z" fill="black"/>
<path d="M507.73 132.667C518.795 129.984 532.207 127.972 537.572 127.972C546.29 127.637 546.961 126.966 544.949 116.907C543.943 110.871 542.267 97.7941 540.925 88.4054C537.908 63.5923 535.225 62.2511 500.017 66.9454C483.922 69.2926 469.504 72.3104 467.828 73.987C461.121 80.6932 470.175 82.3698 494.317 79.352C515.442 76.6695 520.471 77.0048 523.154 81.0285C528.519 89.4113 524.16 92.0938 500.353 95.7822C487.276 97.7941 474.198 101.483 471.181 103.83C463.133 110.536 464.474 126.296 473.192 132.331C481.911 138.367 481.575 138.367 507.73 132.667ZM482.581 116.236C482.581 107.853 482.917 107.518 513.43 102.488C523.825 100.812 525.836 101.483 527.848 107.853C531.537 118.919 524.495 122.272 493.311 123.948C483.922 124.284 482.581 123.278 482.581 116.236Z" fill="black"/>
<path d="M618.381 115.234C622.069 84.3853 624.416 79.0203 634.476 78.0143C639.505 77.3437 648.223 79.0203 653.924 82.0381C662.977 86.3971 664.318 86.3971 665.995 82.0381C669.348 73.32 661.301 69.6316 636.152 66.6137C622.74 65.2725 611.674 64.6019 611.004 64.9372C609.327 66.9491 600.944 126.299 602.286 128.646C602.956 129.988 606.645 130.994 609.998 130.994C615.028 130.994 616.704 127.64 618.381 115.234Z" fill="black"/>
</svg>
